<svg width="32" height="42" viewBox="0 0 32 42" fill="none" xmlns="http://www.w3.org/2000/svg">
<path d="M28.2515 32.6854C29.335 31.8179 30.1655 30.7901 30.7478 29.607C31.1514 28.8625 31.4211 28.0403 31.5848 27.1566L21.3648 35.3219C24.1969 34.9707 26.493 34.0935 28.2515 32.6854Z" fill="white"/>
<path d="M15.1679 35.495H18.3755C18.8553 35.495 19.3184 35.4788 19.775 35.4546L31.7287 25.9039C31.7403 25.7064 31.7618 25.5138 31.7618 25.3083V25.2095C31.7618 25.1626 31.7568 25.1189 31.7568 25.0736C31.7585 25.004 31.7618 24.9344 31.7618 24.8648V24.7547C31.7618 23.9067 31.6873 23.1282 31.555 22.4031" fill="white"/>
<path d="M31.3317 21.4466C31.0406 20.448 30.5989 19.5869 30.0116 18.8602L9.18945 35.4951H13.7469" fill="white"/>
<path d="M27.0802 16.4244L0.140625 37.9471V41.4819L6.79406 36.272L29.4094 18.2048C28.7395 17.5315 27.9669 16.9343 27.0802 16.4244Z" fill="white"/>
<path d="M26.1572 15.9323C27.1001 15.3545 27.9206 14.6473 28.6121 13.8024C29.5782 12.6209 30.0827 11.0882 30.1357 9.20752L0.140625 33.1709V36.8125L26.2283 15.9696C26.2035 15.9582 26.182 15.9437 26.1572 15.9323Z" fill="white"/>
<path d="M29.5401 5.59029C29.4673 5.42196 29.383 5.26012 29.3003 5.09827L0.140625 28.3948V32.0348L30.1142 8.08761C30.0513 7.17155 29.8627 6.33641 29.5401 5.59029Z" fill="white"/>
<path d="M27.8759 3.09459C27.5649 2.79679 27.2209 2.52489 26.8619 2.26917L0.140625 23.6186V27.2586L28.8536 4.31979C28.5674 3.88442 28.2432 3.47494 27.8759 3.09459Z" fill="white"/>
<path d="M23.9421 0.797894C23.6559 0.702403 23.3482 0.624716 23.0405 0.54541L0.140625 18.8408V22.4824L26.0811 1.75604C25.4343 1.38055 24.7213 1.06009 23.9421 0.797894Z" fill="white"/>
<path d="M18.2448 0H17.7453L0.140625 14.0647V17.7046L21.9173 0.305894C20.8056 0.110057 19.5914 0 18.2448 0Z" fill="white"/>
<path d="M11.7668 0L0.140625 9.2885V12.9285L16.3226 0H11.7668Z" fill="white"/>
<path d="M5.78661 0L0.140625 4.51073V8.15233L10.3441 0H5.78661Z" fill="white"/>
<path d="M0.140625 0V3.37455L4.3656 0" fill="white"/>
</svg>

