<svg width="130" height="50" viewBox="0 0 130 50" fill="none" xmlns="http://www.w3.org/2000/svg">
	<path d="M52.8516 32.5627C51.8743 32.3573 51.0591 32.1329 50.4293 31.8958C49.8227 31.6671 49.3488 31.413 49.0181 31.1399C48.7064 30.8816 48.4915 30.5979 48.3778 30.2951C48.2577 29.9754 48.1966 29.6049 48.1966 29.1963V29.1476C48.1966 28.7686 48.2809 28.4066 48.4494 28.07C48.6179 27.7312 48.8643 27.4284 49.1845 27.1701C49.5131 26.9076 49.9154 26.6938 50.3809 26.5392C50.8506 26.3804 51.3856 26.3021 51.9754 26.3021C52.8663 26.3021 53.7089 26.4418 54.4819 26.7192C55.2528 26.9944 56.0342 27.4729 56.8051 28.1398L57.0979 28.3918L58.3785 26.7912L58.0794 26.5562C57.6371 26.2111 57.1864 25.8977 56.744 25.6288C56.2954 25.3557 55.8236 25.1292 55.3455 24.9513C54.8631 24.7735 54.3429 24.6358 53.7973 24.5427C53.2497 24.4495 52.6536 24.403 52.0238 24.403C51.1918 24.403 50.4167 24.5258 49.7174 24.765C49.0118 25.0064 48.3925 25.3493 47.8744 25.7834C47.352 26.2216 46.9371 26.7425 46.6401 27.3289C46.3389 27.926 46.1872 28.5781 46.1872 29.2683V29.3191C46.1872 30.0178 46.3073 30.653 46.5453 31.2013C46.7875 31.7581 47.1645 32.2536 47.6701 32.6707C48.1587 33.0772 48.7885 33.4328 49.5426 33.7314C50.2798 34.0236 51.1792 34.2797 52.2176 34.4936C53.1612 34.6841 53.9405 34.8958 54.5366 35.1245C55.1117 35.3447 55.5729 35.5924 55.9057 35.8592C56.2154 36.109 56.4281 36.3842 56.5418 36.6764C56.664 36.9919 56.723 37.356 56.723 37.7625V37.8112C56.723 38.2368 56.6303 38.6348 56.4492 38.9948C56.2638 39.361 56.0005 39.6807 55.6719 39.9475C55.3391 40.2164 54.9221 40.4323 54.4355 40.589C53.9405 40.7478 53.3908 40.8283 52.801 40.8283C52.1944 40.8283 51.6299 40.7774 51.1244 40.6758C50.6168 40.5763 50.126 40.4281 49.6647 40.2354C49.2077 40.0428 48.7527 39.7929 48.3125 39.4902C47.8681 39.1853 47.4152 38.8148 46.9602 38.3892L46.678 38.1267L45.3552 39.6511L45.6333 39.8967C46.678 40.8325 47.7796 41.5439 48.9065 42.0139C50.0397 42.486 51.3245 42.7253 52.7273 42.7253C53.5867 42.7253 54.3913 42.6046 55.1138 42.3654C55.8425 42.124 56.4787 41.781 57.0073 41.347C57.5402 40.9087 57.9636 40.3688 58.269 39.7464C58.5786 39.1197 58.7324 38.4273 58.7324 37.6884V37.6397C58.7324 36.2784 58.248 35.1753 57.2896 34.3644C56.3586 33.5747 54.9052 32.9861 52.8516 32.5627Z" fill="#FFDD00"/>
	<path d="M61.2115 26.5456H67.1366V42.4818H69.146V26.5456H75.069V24.6486H61.2115" fill="#FFDD00"/>
	<path d="M92.1195 33.6128C92.1195 34.6184 91.9489 35.5754 91.6098 36.4562C91.2728 37.3348 90.7946 38.1118 90.1922 38.7639C89.5898 39.4139 88.8631 39.9348 88.0312 40.3116C87.2013 40.6864 86.2766 40.8769 85.2824 40.8769C84.2882 40.8769 83.3594 40.6821 82.5232 40.301C81.6827 39.9157 80.9518 39.3906 80.3473 38.7385C79.7428 38.0864 79.2626 37.3052 78.9171 36.4181C78.5717 35.531 78.3969 34.5719 78.3969 33.5641V33.5154C78.3969 32.5097 78.5675 31.5527 78.9045 30.6741C79.2415 29.7954 79.7197 29.0184 80.3242 28.3663C80.9245 27.7142 81.6532 27.1934 82.4852 26.8165C83.3151 26.4439 84.2398 26.2534 85.234 26.2534C86.226 26.2534 87.1549 26.446 87.9932 26.8292C88.8316 27.2124 89.5646 27.7375 90.1691 28.3896C90.7715 29.0438 91.2538 29.8251 91.5992 30.7122C91.9447 31.5993 92.1195 32.5584 92.1195 33.5641V33.6128ZM91.7467 27.1235C90.9716 26.2851 90.03 25.6076 88.9453 25.1101C87.8563 24.6083 86.6241 24.3542 85.2824 24.3542C83.9554 24.3542 82.7232 24.6083 81.6195 25.1079C80.5179 25.6076 79.568 26.2893 78.7908 27.1362C78.0199 27.981 77.4111 28.9676 76.9836 30.0728C76.5539 31.178 76.3369 32.353 76.3369 33.5641V33.6128C76.3369 34.8259 76.5518 35.9967 76.9688 37.0913C77.3901 38.1881 77.9946 39.1704 78.7676 40.0067C79.5448 40.8452 80.4906 41.5227 81.5837 42.0202C82.679 42.522 83.907 42.7739 85.234 42.7739C86.5757 42.7739 87.8121 42.522 88.9095 42.0202C90.0006 41.5227 90.9484 40.8409 91.7235 39.994C92.4965 39.1493 93.1053 38.1605 93.5328 37.0575C93.952 35.9735 94.1689 34.8238 94.1774 33.6361C94.1921 33.5725 94.1921 33.5069 94.1774 33.4434C94.1689 32.2578 93.9562 31.1123 93.5455 30.0368C93.1242 28.9401 92.5197 27.9598 91.7467 27.1235Z" fill="#FFDD00"/>
	<path d="M105.893 33.507H100.534V26.5456H105.964C107.426 26.5456 108.561 26.8568 109.341 27.4687C110.101 28.07 110.472 28.8682 110.472 29.9162V29.9649C110.472 30.5196 110.358 31.0171 110.137 31.4427C109.914 31.8725 109.602 32.243 109.21 32.5436C108.812 32.8485 108.326 33.0878 107.765 33.2529C107.197 33.4202 106.567 33.507 105.893 33.507ZM109.252 34.6312C109.897 34.3644 110.463 34.0087 110.937 33.5747C111.42 33.1343 111.801 32.605 112.073 31.9974C112.344 31.3898 112.481 30.6953 112.481 29.9289V29.8802C112.481 29.2154 112.357 28.5802 112.113 27.9895C111.866 27.4009 111.521 26.8801 111.085 26.4418C110.531 25.885 109.815 25.4404 108.96 25.1228C108.111 24.8074 107.129 24.6486 106.038 24.6486H98.527V42.4818H100.534V35.404H105.539L110.952 42.4818H113.499L107.805 35.0737C108.315 34.9678 108.799 34.8196 109.252 34.6312Z" fill="#FFDD00"/>
	<path d="M118.25 40.5847V34.4533H127.988V32.5542H118.25V26.5455H129.079V24.6464H116.241V42.4818H129.201V40.5847" fill="#FFDD00"/>
	<path d="M55.9563 13.999C55.9563 14.4881 55.7709 14.8628 55.3981 15.1233C55.0274 15.3837 54.4945 15.5128 53.7994 15.5128H50.3177V12.4619H53.7531C54.5093 12.4619 55.0653 12.5974 55.4234 12.8642C55.7773 13.1331 55.9563 13.4951 55.9563 13.9524V13.999ZM50.3177 6.33684H53.2623C54.623 6.33684 55.3033 6.80898 55.3033 7.75537V7.80195C55.3033 8.29102 55.118 8.65307 54.7473 8.89019C54.3766 9.12732 53.8437 9.24588 53.1465 9.24588H50.3177V6.33684ZM57.2264 10.5459C57.9531 10.2304 58.5513 9.7773 59.0231 9.1866C59.4949 8.5959 59.7308 7.81889 59.7308 6.85556V6.80898C59.7308 6.24157 59.6381 5.73767 59.4507 5.29517C59.2653 4.85268 59.0104 4.45888 58.684 4.11165C58.2037 3.63952 57.5971 3.27747 56.8704 3.02341C56.1395 2.77146 55.2633 2.64655 54.2418 2.64655H45.8923V19.2031H54.3028C56.2596 19.2031 57.7761 18.8008 58.8567 17.9963C59.9351 17.1918 60.4743 16.0739 60.4743 14.6384V14.5918C60.4743 13.4718 60.1837 12.5995 59.5981 11.9771C59.0147 11.3546 58.2248 10.8783 57.2264 10.5459Z" fill="white"/>
	<path d="M67.3241 2.64655H62.806V19.2031H75.2227V15.1825H67.3241" fill="white"/>
	<path d="M83.3762 12.6503L85.2171 7.96706L87.0328 12.6503H83.3762ZM89.5267 19.2031H94.3733L87.4309 2.52795H83.0729L76.1537 19.2031H80.8845L82.0471 16.2221H88.3619" fill="white"/>
	<path d="M110.017 17.287C110.474 16.8297 110.897 16.3342 111.285 15.7965L107.883 13.3363C107.635 13.6369 107.384 13.9079 107.127 14.1535C106.87 14.3991 106.598 14.6108 106.312 14.7929C106.025 14.9729 105.707 15.1105 105.356 15.2058C105.006 15.301 104.623 15.3476 104.203 15.3476C103.628 15.3476 103.106 15.2333 102.632 15.0046C102.156 14.776 101.75 14.4647 101.408 14.0709C101.065 13.6771 100.798 13.2071 100.604 12.663C100.41 12.1189 100.313 11.5388 100.313 10.9248V10.8782C100.313 10.2769 100.41 9.71162 100.604 9.17384C100.798 8.63819 101.065 8.16817 101.408 7.7659C101.75 7.36363 102.156 7.05028 102.632 6.81951C103.106 6.59297 103.628 6.47864 104.203 6.47864C104.995 6.47864 105.672 6.65437 106.23 7.01006C106.79 7.36363 107.302 7.83365 107.767 8.418L111.169 5.74397C110.811 5.24007 110.404 4.77852 109.945 4.36143C109.488 3.94222 108.974 3.58018 108.41 3.27318C107.841 2.96407 107.218 2.72906 106.533 2.5618C105.849 2.39666 105.088 2.31409 104.252 2.31409C103.007 2.31409 101.865 2.53428 100.825 2.97677C99.7844 3.41715 98.8808 4.02903 98.112 4.81028C97.3432 5.59153 96.745 6.50404 96.3174 7.55418C95.8899 8.6022 95.6771 9.72644 95.6771 10.9248V10.9714C95.6771 12.2015 95.8983 13.3405 96.3406 14.3885C96.7829 15.4387 97.3811 16.3448 98.1352 17.1091C98.8871 17.8756 99.776 18.4705 100.802 18.8961C101.828 19.3216 102.921 19.5355 104.088 19.5355C104.987 19.5355 105.796 19.4402 106.51 19.2518C107.224 19.0612 107.873 18.8008 108.454 18.4705C109.037 18.1381 109.558 17.7443 110.017 17.287Z" fill="white"/>
	<path d="M122.817 9.74131L128.991 2.64655H123.657L118.019 9.36445V2.64655H113.499V19.2031H118.019V14.8988L119.672 13.0526L123.796 19.2031H129.201" fill="white"/>
	<path d="M32.7869 39.1683C34.0506 38.1288 35.0195 36.8966 35.6978 35.478C36.1696 34.5867 36.4834 33.6001 36.673 32.5415L24.7555 42.3251C28.0582 41.9059 30.7353 40.8536 32.7869 39.1683Z" fill="white"/>
	<path d="M17.5266 42.5348H21.2674C21.8277 42.5348 22.369 42.5157 22.8998 42.4861L36.8436 31.0426C36.8562 30.8033 36.8815 30.5725 36.8815 30.3269V30.2084C36.8815 30.1533 36.8752 30.1025 36.8752 30.0454C36.8773 29.9628 36.8815 29.8802 36.8815 29.7955V29.6621C36.8815 28.648 36.7951 27.7143 36.6393 26.8463" fill="white"/>
	<path d="M36.3781 25.6986C36.0411 24.5024 35.525 23.4713 34.8384 22.6012L10.5526 42.5347H15.8689" fill="white"/>
	<path d="M31.422 19.6816L0 45.4734V49.7079L7.75965 43.4663L34.137 21.8158C33.3555 21.0091 32.454 20.2935 31.422 19.6816Z" fill="white"/>
	<path d="M30.3435 19.0929C31.4451 18.4006 32.4014 17.5516 33.2081 16.5396C34.335 15.1253 34.9226 13.2876 34.9837 11.0349L0 39.7484V44.112L30.4257 19.1374C30.3983 19.1226 30.373 19.1057 30.3435 19.0929Z" fill="white"/>
	<path d="M34.2907 6.70097C34.2044 6.49772 34.1075 6.30294 34.0106 6.10815L0 34.0257V38.3871L34.9606 9.69259C34.8847 8.59376 34.6657 7.59443 34.2907 6.70097Z" fill="white"/>
	<path d="M32.3487 3.70936C31.9864 3.35155 31.5862 3.02762 31.1671 2.71851L0 28.3007V32.6643L33.4882 5.17659C33.1554 4.65575 32.7763 4.16456 32.3487 3.70936Z" fill="white"/>
	<path d="M27.7612 0.956997C27.4263 0.842668 27.0682 0.74951 26.7101 0.654236L0 22.5779V26.9394L30.2551 2.10664C29.501 1.65568 28.669 1.27246 27.7612 0.956997Z" fill="white"/>
	<path d="M21.1137 0H20.5323L0 16.853V21.2165L25.4 0.368394C24.1025 0.133384 22.6871 0 21.1137 0Z" fill="white"/>
	<path d="M13.5583 0L0 11.1302V15.4916L18.8747 0H13.5583Z" fill="white"/>
	<path d="M6.58644 0L0 5.40523V9.7688L11.9007 0H6.58644Z" fill="white"/>
	<path d="M0 0V4.04387L4.92666 0" fill="white"/>
</svg>
